<svg xmlns="http://www.w3.org/2000/svg" width="430" height="430" viewBox="0 0 430 430" fill="none"><path d="M127.012 275.95C127.012 275.95 119.912 277.55 116.112 282.25C110.112 289.65 110.312 301.85 131.212 301.85C165.412 301.85 306.512 301.85 306.512 301.85" stroke="#121331" stroke-width="12" stroke-miterlimit="14.8" stroke-linecap="round" stroke-linejoin="round"></path><path d="M144.112 301.95C159.412 301.95 171.912 314.35 171.912 329.75C171.912 345.05 159.512 357.55 144.112 357.55C128.712 357.55 116.312 345.15 116.312 329.75C116.412 314.35 128.812 301.95 144.112 301.95Z" stroke="#08A88A" stroke-width="12" stroke-miterlimit="14.8"></path><path d="M308.312 301.95C323.612 301.95 336.112 314.35 336.112 329.75C336.112 345.05 323.712 357.55 308.312 357.55C293.012 357.55 280.512 345.15 280.512 329.75C280.612 314.35 293.012 301.95 308.312 301.95Z" stroke="#08A88A" stroke-width="12" stroke-miterlimit="14.8"></path><path d="M41.9122 72.45H67.3122C81.3122 72.45 95.5122 88.85 98.9122 108.95L127.012 275.95M99.0122 109.45L347.212 109.55C367.612 109.55 385.212 109.55 386.512 109.55C387.812 109.55 388.412 110.95 387.912 112.65C387.412 114.35 382.412 131.65 376.712 151.25L357.912 215.95C352.212 235.55 331.112 253.35 310.812 255.65L165.112 272.25C144.812 274.55 130.312 274.35 127.012 275.95C127.012 275.95 119.912 277.55 116.112 282.25" stroke="#121331" stroke-width="12" stroke-miterlimit="14.8" stroke-linecap="round" stroke-linejoin="round"></path></svg>